<svg id="visual" viewBox="0 0 900 600" width="900" height="600" xmlns="http://www.w3.org/2000/svg" xmlns:xlink="http://www.w3.org/1999/xlink" version="1.1"><g stroke-width="1" stroke-linejoin="bevel"><path d="M399 276L415 204L303 217Z" fill="#f5f6f7" stroke="#f5f6f7"></path><path d="M303 217L263 318L399 276Z" fill="#e6e9ec" stroke="#e6e9ec"></path><path d="M186 93L225 221L303 217Z" fill="#ced4d9" stroke="#ced4d9"></path><path d="M303 217L225 221L263 318Z" fill="#d8dce1" stroke="#d8dce1"></path><path d="M399 276L522 216L415 204Z" fill="#ffffff" stroke="#ffffff"></path><path d="M378 65L317 72L415 204Z" fill="#dce1e4" stroke="#dce1e4"></path><path d="M415 204L317 72L303 217Z" fill="#d3d8dd" stroke="#d3d8dd"></path><path d="M483 109L378 65L415 204Z" fill="#d8dce1" stroke="#d8dce1"></path><path d="M522 216L483 109L415 204Z" fill="#ebedf0" stroke="#ebedf0"></path><path d="M90 210L186 266L225 221Z" fill="#f0f2f4" stroke="#f0f2f4"></path><path d="M225 221L186 266L263 318Z" fill="#e1e5e8" stroke="#e1e5e8"></path><path d="M334 427L399 276L263 318Z" fill="#d8dce1" stroke="#d8dce1"></path><path d="M334 427L390 421L399 276Z" fill="#e6e9ec" stroke="#e6e9ec"></path><path d="M399 276L530 338L522 216Z" fill="#d3d8dd" stroke="#d3d8dd"></path><path d="M172 420L334 427L263 318Z" fill="#ced4d9" stroke="#ced4d9"></path><path d="M496 406L530 338L399 276Z" fill="#f0f2f4" stroke="#f0f2f4"></path><path d="M578 273L579 199L522 216Z" fill="#d8dce1" stroke="#d8dce1"></path><path d="M522 216L579 199L483 109Z" fill="#f5f6f7" stroke="#f5f6f7"></path><path d="M530 338L578 273L522 216Z" fill="#dce1e4" stroke="#dce1e4"></path><path d="M390 421L496 406L399 276Z" fill="#e1e5e8" stroke="#e1e5e8"></path><path d="M530 338L595 382L578 273Z" fill="#f0f2f4" stroke="#f0f2f4"></path><path d="M317 72L186 93L303 217Z" fill="#f0f2f4" stroke="#f0f2f4"></path><path d="M483 109L394 0L378 65Z" fill="#d3d8dd" stroke="#d3d8dd"></path><path d="M378 65L325 0L317 72Z" fill="#e6e9ec" stroke="#e6e9ec"></path><path d="M317 72L221 0L186 93Z" fill="#dce1e4" stroke="#dce1e4"></path><path d="M512 0L394 0L483 109Z" fill="#dce1e4" stroke="#dce1e4"></path><path d="M394 0L325 0L378 65Z" fill="#e1e5e8" stroke="#e1e5e8"></path><path d="M334 427L381 497L390 421Z" fill="#dce1e4" stroke="#dce1e4"></path><path d="M390 421L381 497L496 406Z" fill="#d8dce1" stroke="#d8dce1"></path><path d="M305 531L381 497L334 427Z" fill="#f5f6f7" stroke="#f5f6f7"></path><path d="M90 210L116 338L186 266Z" fill="#d3d8dd" stroke="#d3d8dd"></path><path d="M186 266L116 338L263 318Z" fill="#ced4d9" stroke="#ced4d9"></path><path d="M116 338L172 420L263 318Z" fill="#e6e9ec" stroke="#e6e9ec"></path><path d="M325 0L221 0L317 72Z" fill="#dce1e4" stroke="#dce1e4"></path><path d="M69 65L90 210L186 93Z" fill="#f0f2f4" stroke="#f0f2f4"></path><path d="M186 93L90 210L225 221Z" fill="#e1e5e8" stroke="#e1e5e8"></path><path d="M614 100L512 0L483 109Z" fill="#d8dce1" stroke="#d8dce1"></path><path d="M592 469L595 382L496 406Z" fill="#fafbfb" stroke="#fafbfb"></path><path d="M496 406L595 382L530 338Z" fill="#d8dce1" stroke="#d8dce1"></path><path d="M708 229L614 100L579 199Z" fill="#fafbfb" stroke="#fafbfb"></path><path d="M579 199L614 100L483 109Z" fill="#dce1e4" stroke="#dce1e4"></path><path d="M708 229L579 199L578 273Z" fill="#ced4d9" stroke="#ced4d9"></path><path d="M233 510L305 531L334 427Z" fill="#ffffff" stroke="#ffffff"></path><path d="M72 473L233 510L172 420Z" fill="#d8dce1" stroke="#d8dce1"></path><path d="M172 420L233 510L334 427Z" fill="#dce1e4" stroke="#dce1e4"></path><path d="M0 381L95 400L116 338Z" fill="#ffffff" stroke="#ffffff"></path><path d="M116 338L95 400L172 420Z" fill="#ffffff" stroke="#ffffff"></path><path d="M614 100L594 0L512 0Z" fill="#f0f2f4" stroke="#f0f2f4"></path><path d="M663 469L661 367L595 382Z" fill="#f0f2f4" stroke="#f0f2f4"></path><path d="M595 382L661 367L578 273Z" fill="#e6e9ec" stroke="#e6e9ec"></path><path d="M526 529L592 469L496 406Z" fill="#ebedf0" stroke="#ebedf0"></path><path d="M526 529L496 406L381 497Z" fill="#ffffff" stroke="#ffffff"></path><path d="M63 0L69 65L186 93Z" fill="#e1e5e8" stroke="#e1e5e8"></path><path d="M90 210L0 321L116 338Z" fill="#f0f2f4" stroke="#f0f2f4"></path><path d="M661 367L694 287L578 273Z" fill="#ffffff" stroke="#ffffff"></path><path d="M614 100L683 71L594 0Z" fill="#ced4d9" stroke="#ced4d9"></path><path d="M482 600L526 529L381 497Z" fill="#e1e5e8" stroke="#e1e5e8"></path><path d="M694 287L708 229L578 273Z" fill="#e6e9ec" stroke="#e6e9ec"></path><path d="M708 229L683 71L614 100Z" fill="#e1e5e8" stroke="#e1e5e8"></path><path d="M0 136L0 210L90 210Z" fill="#e1e5e8" stroke="#e1e5e8"></path><path d="M334 600L362 600L305 531Z" fill="#f5f6f7" stroke="#f5f6f7"></path><path d="M305 531L362 600L381 497Z" fill="#f5f6f7" stroke="#f5f6f7"></path><path d="M184 600L334 600L305 531Z" fill="#ffffff" stroke="#ffffff"></path><path d="M184 600L305 531L233 510Z" fill="#ced4d9" stroke="#ced4d9"></path><path d="M0 210L0 321L90 210Z" fill="#ebedf0" stroke="#ebedf0"></path><path d="M95 400L72 473L172 420Z" fill="#e6e9ec" stroke="#e6e9ec"></path><path d="M69 65L0 136L90 210Z" fill="#fafbfb" stroke="#fafbfb"></path><path d="M221 0L63 0L186 93Z" fill="#f5f6f7" stroke="#f5f6f7"></path><path d="M69 65L0 0L0 136Z" fill="#f0f2f4" stroke="#f0f2f4"></path><path d="M0 381L72 473L95 400Z" fill="#d8dce1" stroke="#d8dce1"></path><path d="M627 600L663 469L592 469Z" fill="#d3d8dd" stroke="#d3d8dd"></path><path d="M592 469L663 469L595 382Z" fill="#ced4d9" stroke="#ced4d9"></path><path d="M793 384L793 283L694 287Z" fill="#ebedf0" stroke="#ebedf0"></path><path d="M694 287L793 283L708 229Z" fill="#ebedf0" stroke="#ebedf0"></path><path d="M362 600L482 600L381 497Z" fill="#e6e9ec" stroke="#e6e9ec"></path><path d="M526 529L627 600L592 469Z" fill="#fafbfb" stroke="#fafbfb"></path><path d="M0 321L0 381L116 338Z" fill="#f5f6f7" stroke="#f5f6f7"></path><path d="M787 0L690 0L683 71Z" fill="#e1e5e8" stroke="#e1e5e8"></path><path d="M683 71L690 0L594 0Z" fill="#ebedf0" stroke="#ebedf0"></path><path d="M113 600L184 600L233 510Z" fill="#dce1e4" stroke="#dce1e4"></path><path d="M63 0L0 0L69 65Z" fill="#ced4d9" stroke="#ced4d9"></path><path d="M793 384L694 287L661 367Z" fill="#ebedf0" stroke="#ebedf0"></path><path d="M708 229L799 188L683 71Z" fill="#f5f6f7" stroke="#f5f6f7"></path><path d="M793 283L799 188L708 229Z" fill="#f5f6f7" stroke="#f5f6f7"></path><path d="M0 530L113 600L72 473Z" fill="#ffffff" stroke="#ffffff"></path><path d="M72 473L113 600L233 510Z" fill="#ebedf0" stroke="#ebedf0"></path><path d="M482 600L627 600L526 529Z" fill="#ebedf0" stroke="#ebedf0"></path><path d="M771 473L793 384L661 367Z" fill="#e1e5e8" stroke="#e1e5e8"></path><path d="M771 473L661 367L663 469Z" fill="#ced4d9" stroke="#ced4d9"></path><path d="M793 283L900 181L799 188Z" fill="#fafbfb" stroke="#fafbfb"></path><path d="M799 188L804 86L683 71Z" fill="#ffffff" stroke="#ffffff"></path><path d="M900 124L804 86L799 188Z" fill="#ebedf0" stroke="#ebedf0"></path><path d="M0 381L0 530L72 473Z" fill="#e6e9ec" stroke="#e6e9ec"></path><path d="M685 600L771 473L663 469Z" fill="#ced4d9" stroke="#ced4d9"></path><path d="M804 86L787 0L683 71Z" fill="#ebedf0" stroke="#ebedf0"></path><path d="M627 600L685 600L663 469Z" fill="#d8dce1" stroke="#d8dce1"></path><path d="M0 530L0 600L113 600Z" fill="#ffffff" stroke="#ffffff"></path><path d="M900 312L793 283L793 384Z" fill="#dce1e4" stroke="#dce1e4"></path><path d="M900 312L900 181L793 283Z" fill="#fafbfb" stroke="#fafbfb"></path><path d="M804 86L900 0L787 0Z" fill="#dce1e4" stroke="#dce1e4"></path><path d="M900 367L900 312L793 384Z" fill="#d3d8dd" stroke="#d3d8dd"></path><path d="M900 367L793 384L900 466Z" fill="#d3d8dd" stroke="#d3d8dd"></path><path d="M900 181L900 124L799 188Z" fill="#ebedf0" stroke="#ebedf0"></path><path d="M900 466L793 384L771 473Z" fill="#d8dce1" stroke="#d8dce1"></path><path d="M900 124L900 0L804 86Z" fill="#f5f6f7" stroke="#f5f6f7"></path><path d="M825 600L900 466L771 473Z" fill="#f0f2f4" stroke="#f0f2f4"></path><path d="M685 600L825 600L771 473Z" fill="#e1e5e8" stroke="#e1e5e8"></path><path d="M825 600L900 600L900 466Z" fill="#ebedf0" stroke="#ebedf0"></path></g></svg>