<svg id="visual" viewBox="0 0 900 600" width="900" height="600" xmlns="http://www.w3.org/2000/svg" xmlns:xlink="http://www.w3.org/1999/xlink" version="1.1"><rect x="0" y="0" width="900" height="600" fill="#FFFFFF"></rect><path d="M517 0L496.2 7.2C475.3 14.3 433.7 28.7 416 43C398.3 57.3 404.7 71.7 427.3 86C450 100.3 489 114.7 500.2 128.8C511.3 143 494.7 157 485.7 171.2C476.7 185.3 475.3 199.7 482.2 214C489 228.3 504 242.7 514.2 257C524.3 271.3 529.7 285.7 530.2 300C530.7 314.3 526.3 328.7 516.5 343C506.7 357.3 491.3 371.7 474.2 386C457 400.3 438 414.7 433.3 428.8C428.7 443 438.3 457 431.7 471.2C425 485.3 402 499.7 406.5 514C411 528.3 443 542.7 458.7 557C474.3 571.3 473.7 585.7 473.3 592.8L473 600L0 600L0 592.8C0 585.7 0 571.3 0 557C0 542.7 0 528.3 0 514C0 499.7 0 485.3 0 471.2C0 457 0 443 0 428.8C0 414.7 0 400.3 0 386C0 371.7 0 357.3 0 343C0 328.7 0 314.3 0 300C0 285.7 0 271.3 0 257C0 242.7 0 228.3 0 214C0 199.7 0 185.3 0 171.2C0 157 0 143 0 128.8C0 114.7 0 100.3 0 86C0 71.7 0 57.3 0 43C0 28.7 0 14.3 0 7.2L0 0Z" fill="#0D6EFD" stroke-linecap="round" stroke-linejoin="miter"></path></svg>